<?xml version="1.0" encoding="UTF-8"?>
<svg width="512" height="512" viewBox="0 0 512 512" fill="none" xmlns="http://www.w3.org/2000/svg">
  <rect width="512" height="512" fill="#4A90E2"/>
  <circle cx="256" cy="256" r="180" fill="#FFD700"/>
  <path d="M256 76C158.5 76 80 154.5 80 252C80 349.5 158.5 428 256 428C353.5 428 432 349.5 432 252C432 154.5 353.5 76 256 76ZM256 396C176.5 396 112 331.5 112 252C112 172.5 176.5 108 256 108C335.5 108 400 172.5 400 252C400 331.5 335.5 396 256 396Z" fill="#FFF"/>
  <path d="M256 140C194.2 140 144 190.2 144 252C144 313.8 194.2 364 256 364C317.8 364 368 313.8 368 252C368 190.2 317.8 140 256 140Z" fill="#FFD700"/>
</svg> 